<svg width="146" height="52" viewBox="0 0 146 52" fill="none" xmlns="http://www.w3.org/2000/svg">
<path d="M77 14.2798C79.2292 14.2386 81.4592 14.1858 83.6868 14.2942C85.6336 17.2046 87.054 20.4278 88.8864 23.4002C89.656 22.195 90.174 20.8198 90.8072 19.5402C91.6844 17.7686 92.7328 15.9538 93.812 14.2966C96.0292 14.175 98.2684 14.283 100.49 14.245C98.44 17.699 96.5232 21.2442 94.5204 24.7282C93.6804 25.9666 92.4188 27.7402 91.9492 29.1374C91.5016 30.4702 91.7292 37.3122 91.7064 39.3558C89.7796 39.201 87.696 39.2914 85.7612 39.365C85.8348 37.3538 85.7856 35.3234 85.7868 33.3102C85.788 32.1258 85.9272 30.719 85.702 29.5622C85.4728 28.3834 83.412 25.4974 82.7396 24.3042C82.3192 23.5578 81.9812 22.7702 81.5664 22.021C80.132 19.4274 78.6256 16.755 77 14.2798Z" fill="white"/>
<path d="M117.127 14.2923C119.406 14.0983 121.768 14.2983 124.059 14.2635C123.307 15.6487 122.326 16.7551 121.382 18.0047L117.757 22.8679C116.942 23.9471 115.485 25.3975 115.186 26.7331C115.718 28.2071 119.838 33.0079 121.12 34.5251C122.294 36.0951 123.426 37.6395 124.436 39.3235C122.078 39.3533 119.72 39.3549 117.362 39.3283C116.179 37.9331 115.28 36.3351 114.198 34.8655C112.438 32.4775 110.546 30.1679 108.766 27.7887L108.735 39.3211C106.752 39.3167 104.72 39.2171 102.744 39.3727C102.961 37.2175 102.752 34.3611 102.746 32.1303C102.729 26.1999 102.592 20.2351 102.763 14.3087C104.757 14.2083 106.764 14.2567 108.76 14.2643C108.584 17.9031 108.753 21.8703 108.809 25.5391C109.78 24.5363 110.567 23.2947 111.386 22.1655L115.152 16.9795C115.791 16.0883 116.37 15.0859 117.127 14.2923Z" fill="white"/>
<path d="M134.284 14.0123L134.504 14.0062C137.519 13.9322 140.689 14.4978 142.936 16.6722C144.493 18.179 144.828 20.1638 144.858 22.239C142.913 22.3762 140.885 22.2922 138.936 22.2322C138.834 21.3834 138.726 20.6966 138.106 20.049C137.308 19.2158 136.082 19.0494 134.984 19.0266C133.879 19.0042 132.716 19.1402 131.901 19.9686C131.536 20.3402 131.246 20.8642 131.265 21.3994C131.345 23.5302 135.464 24.0058 137.028 24.3318C138.139 24.563 139.253 24.7918 140.334 25.1414C141.381 25.4806 142.376 25.9762 143.205 26.7102C144.614 27.9594 145.213 29.679 145.31 31.525C145.406 33.371 144.862 35.3234 143.604 36.7082C141.574 38.945 138.753 39.5734 135.857 39.7078C133.102 39.7286 130.223 39.2982 127.968 37.5894C125.846 35.9818 125.37 33.9966 125.01 31.4974C127.035 31.3454 129.075 31.4018 131.103 31.4466C131.202 32.3214 131.405 32.939 132.079 33.5482C133.085 34.4574 134.584 34.6302 135.888 34.5786C136.907 34.5386 138.126 34.3262 138.826 33.5186C139.181 33.109 139.327 32.595 139.264 32.0582C139.204 31.5502 138.892 30.9814 138.458 30.6966C137.574 30.1182 136.305 29.8931 135.292 29.6591C132.842 29.0931 129.927 28.5318 127.908 26.955C126.49 25.8486 125.694 24.4983 125.479 22.7023C125.248 20.7867 125.542 18.659 126.794 17.129C128.6 14.9234 131.589 14.2575 134.284 14.0123Z" fill="white"/>
<path d="M41.8753 0C42.7625 0.0216 43.6141 0.169602 44.4789 0.363202C49.8577 1.5656 54.4585 3.858 58.9865 6.9516C60.0613 7.686 61.2017 8.4148 62.1949 9.2568C63.2277 10.132 64.1633 11.1708 65.1309 12.1212C66.1561 13.1284 67.4653 14.2216 68.2413 15.4352C67.3253 16.4772 66.1629 17.364 65.1709 18.3444C63.6369 19.86 62.2029 21.4704 60.6637 22.9832C59.6021 24.0264 58.4513 24.964 57.3761 25.9916C56.8725 25.3356 56.2405 24.8204 55.6805 24.2184C54.7253 23.1912 53.7969 22.1344 52.8513 21.0976C53.0149 22.298 52.9377 23.5888 52.9393 24.8004L52.9405 31.4004C52.9393 37.9684 53.0377 44.5456 52.9201 51.1116L45.3209 51.1104L25.8321 51.1132C22.4365 51.1068 18.9269 50.896 15.5433 51.134C15.6741 45.1844 15.5741 39.198 15.5597 33.2452C15.5505 29.3496 15.7321 25.372 15.4621 21.4896C13.9529 22.9836 12.4993 24.5432 11.0021 26.0524C9.66966 24.64 8.18166 23.3524 6.81246 21.9672C4.62086 19.7504 2.61326 17.5208 0.220459 15.504C1.24526 14.1188 2.54606 12.898 3.77886 11.7004C4.65846 10.8452 5.52966 9.9372 6.46806 9.148C7.36686 8.3924 8.37646 7.742 9.33726 7.0684C14.3173 3.5772 19.7341 1.0268 25.7733 0.0515991C27.0325 -0.0404009 27.5329 0.623202 28.5769 1.1572C29.3329 1.5436 30.1885 1.824 31.0185 1.9988C32.1529 2.2376 33.3245 2.2952 34.4809 2.284C37.3833 2.2564 39.4653 1.5888 41.8753 0ZM27.1309 40.8244C26.2485 41.2804 24.2941 41.7396 23.9705 42.7144C23.7157 43.4824 23.7845 44.4508 23.7137 45.2564L26.5373 46.3072C27.4365 46.3124 28.3949 45.5016 29.1009 44.9896C29.3577 43.94 29.5457 42.8783 29.6649 41.8044C28.8989 41.4992 27.9365 40.8812 27.1309 40.8244ZM18.3525 40.6072C18.3185 41.6608 18.1693 42.9868 18.4789 43.9896C19.0733 44.6992 19.6033 45.4808 20.4997 45.8136C21.1449 45.4232 22.4081 45.3688 23.1745 45.2804C23.1877 44.252 23.3509 43.2092 23.4025 42.178C22.3925 41.4568 21.6625 40.76 20.8817 39.7924C19.9945 39.9376 19.1861 40.2848 18.3525 40.6072ZM28.3153 34.5704C27.7705 35.2192 27.1765 35.8584 26.6825 36.5452C27.1753 37.7724 27.5505 38.9464 27.6621 40.2696C28.3549 40.6896 29.0837 41.21 29.8729 41.416C30.2829 40.6648 30.9037 40.0584 31.4529 39.4076C30.8557 37.8728 30.0261 35.3136 28.4073 34.6044C28.3773 34.5916 28.3457 34.582 28.3153 34.5704ZM21.3253 33.6C20.1793 34.2788 19.1385 34.9696 18.3133 36.034C18.2541 37.2832 18.1937 38.6304 18.3409 39.8728L18.4457 39.972C18.7245 39.8988 18.9585 39.8048 19.2169 39.6776C19.7385 39.4828 20.2537 39.2896 20.7929 39.1476C21.3169 38.068 21.8245 36.972 22.4209 35.9304C22.1961 35.4812 21.6901 33.9276 21.5093 33.6928C21.4673 33.638 21.3865 33.6308 21.3253 33.6ZM23.3273 33.158L21.8417 33.3472C22.1613 34.0788 22.4561 34.8416 22.8537 35.534C23.8229 35.7084 25.4701 36.2088 26.4141 36.0076C26.9401 35.414 27.4797 34.8276 27.9605 34.196C26.3517 33.416 25.1149 33.0688 23.3273 33.158ZM18.2533 45.1256C18.2653 46.2867 18.2603 47.4476 18.2385 48.6084C19.8137 48.6272 21.4621 48.5428 23.0265 48.716C22.3445 48.3128 20.7985 47.51 20.3313 46.8924C19.6437 46.3948 19.0397 45.7356 18.4809 45.0988L18.2533 45.1256ZM18.4789 43.9896L18.4489 44.1132C18.4277 44.1984 18.4001 44.2824 18.3741 44.3664C18.3305 44.506 18.3285 44.6412 18.3169 44.7852C18.3073 44.9032 18.2833 45.0116 18.2533 45.1256L18.4809 45.0988C19.0397 45.7356 19.6437 46.3948 20.3313 46.8924L20.3005 46.592C20.1653 46.3816 20.0469 46.1504 19.8225 46.0248C19.7873 46.0052 19.7477 45.9948 19.7101 45.9796L19.7857 45.9056L20.2765 45.9904L20.4997 45.8136C19.6033 45.4808 19.0733 44.6992 18.4789 43.9896Z" fill="black"/>
<path d="M18.4788 43.9897C19.0732 44.6993 19.6032 45.4809 20.4996 45.8137L20.2764 45.9905L19.7856 45.9057L19.71 45.9797C19.7476 45.9949 19.7872 46.0053 19.8224 46.0249C20.0468 46.1505 20.1652 46.3817 20.3004 46.5921L20.3312 46.8925C19.6436 46.3949 19.0396 45.7358 18.4808 45.099L18.2532 45.1257C18.2832 45.0117 18.3072 44.9033 18.3168 44.7853C18.3284 44.6413 18.3304 44.5061 18.374 44.3665C18.4 44.2825 18.4276 44.1985 18.4488 44.1133L18.4788 43.9897Z" fill="black"/>
<path d="M30.4612 4.50958C33.0816 4.66358 35.714 4.99798 38.3164 4.44238C37.674 5.04278 37.0468 5.66119 36.4132 6.27119C35.7385 6.95972 35.043 7.62652 34.3268 8.27158C32.9488 7.12878 31.7108 5.78998 30.4612 4.50958Z" fill="#206546"/>
<path d="M43.1248 2.76758C44.8448 2.93118 53.3764 5.78757 54.3816 7.10237C54.5204 7.28357 54.498 7.33558 54.4764 7.54998C54.1984 7.85358 53.8728 7.94598 53.4752 8.00518C52.542 8.14398 51.498 8.04357 50.5512 8.06717C48.5972 8.11557 46.6836 8.22518 44.7452 8.47278C42.7844 8.75398 40.7264 9.26558 38.8772 9.97118C37.9992 10.3064 37.1392 10.7748 36.248 11.058C36.0308 11.1272 35.86 11.1824 35.6544 11.07C35.6508 11.0364 35.6432 11.0032 35.644 10.97C35.6504 10.722 35.8196 10.5124 35.97 10.328C36.6944 9.44238 37.6168 8.67198 38.4204 7.85558C40.0164 6.23398 41.6772 4.52238 43.1248 2.76758Z" fill="#D72F34"/>
<path d="M25.1808 2.76074C25.2564 2.78754 32.4884 9.99994 32.9812 10.5235C33.0924 11.6545 33.14 12.7882 33.124 13.9247C30.7424 12.1779 28.5504 10.7151 25.7696 9.67074C22.7412 8.49314 16.6712 7.35634 13.4304 7.27674C17.4904 5.29874 20.7416 3.79234 25.1808 2.76074Z" fill="#22669E"/>
<path d="M56.7912 8.56763C58.0152 9.03523 61.4504 12.0792 62.488 13.1324C63.1956 13.8512 63.8232 14.6428 64.5456 15.3476L64.6372 15.4356C62.8032 17.0604 61.0676 18.8036 59.3072 20.5076L57.4312 22.328C56.0133 20.7248 54.6328 19.09 53.2896 17.4236C53.7556 14.4556 55.1168 11.0552 56.7912 8.56763Z" fill="#D72F34"/>
<path d="M35.7504 30.4453C39.134 30.5905 42.5392 30.4797 45.9256 30.4801C47.2532 30.4801 48.9128 30.3009 50.1868 30.5937C50.3408 30.8377 50.3136 30.9697 50.2928 31.2453C49.9508 31.9005 45.0024 35.4853 44.0076 36.2641C41.246 38.2965 38.6748 40.5509 35.8156 42.4517C35.5508 38.4905 35.7456 34.4185 35.7504 30.4453Z" fill="#22669E"/>
<path d="M50.1412 34.6125L50.244 34.7029C50.3628 36.2965 50.282 37.9429 50.2816 39.5433L50.2532 48.5958C45.2552 48.6602 40.2516 48.6221 35.2528 48.6329C32.82 48.6381 30.346 48.5537 27.9184 48.7029L27.9088 48.6037C29.7192 47.7969 30.93 46.5113 32.0552 44.9149C33.3884 44.9801 35.4812 45.3269 36.7472 44.8569C37.8516 44.4465 38.914 43.2641 39.8516 42.5509C41.02 41.6617 42.2704 40.8925 43.4332 39.9897C45.698 38.2313 47.8544 36.3401 50.1412 34.6125Z" fill="#206546"/>
<path d="M24.1788 11.8901C24.682 11.9841 25.2132 12.2329 25.6932 12.4221C28.526 13.5381 30.8304 15.2533 33.0096 17.3529C33.1048 19.5289 33.048 21.7309 33.05 23.9101L33.0412 36.1877C32.2036 34.6453 31.0704 33.5073 29.6492 32.5025C26.1556 30.2773 23.5356 30.5245 19.6704 31.3017C20.0992 30.2945 20.8816 29.3777 21.5052 28.4805C23.4816 25.6349 25.2748 22.7613 25.7848 19.2697C26.1536 16.7469 25.7304 13.9729 24.1788 11.8901Z" fill="#206546"/>
<path d="M10.0848 9.63493C10.1128 9.63093 10.1404 9.62573 10.1684 9.62293C12.7248 9.33773 18.7696 9.92573 20.7772 11.5961C22.2188 12.7953 23.1448 14.8573 23.3136 16.7025C23.7256 21.2089 20.9088 25.1761 18.1644 28.4393L18.1528 20.5709L18.148 15.1049C17.2684 16.1349 16.1712 17.0105 15.2128 17.9713C13.8004 19.3873 12.4744 20.8945 11.1124 22.3589C8.76242 20.0517 6.46082 17.6049 3.98682 15.4377C5.71642 13.2613 7.81402 11.2437 10.0848 9.63493Z" fill="#22669E"/>
<path d="M51.0032 10.5668C51.5928 10.5706 52.1821 10.5602 52.7712 10.5356C49.894 15.9796 50.3192 21.9524 50.3152 27.8912L37.8704 27.9028C37.1684 27.9044 36.4652 27.8676 35.7636 27.84C35.7 23.3984 35.7432 18.9512 35.7456 14.5088C41.0548 11.5796 45.0176 10.7488 51.0032 10.5668Z" fill="#D72F34"/>
<path d="M39.2252 16.9189L41.6192 16.9369L41.9952 17.4333C41.1904 17.4677 40.4212 17.5069 39.6292 17.6641C40.2228 18.6701 41.1548 19.4049 41.7124 20.4357C41.7184 20.4469 41.7256 20.4577 41.732 20.4689C41.7368 20.9505 41.7472 21.4317 41.722 21.9125L42.3448 22.5217C42.6608 22.8097 42.9116 23.1053 43.3704 23.1021C43.6184 23.1005 43.9176 22.9077 44.1284 22.7861C44.5844 22.3605 44.8876 22.1033 44.9248 21.4657C45.0612 21.3453 45.2324 21.2453 45.382 21.1409C45.3832 21.3649 45.3884 21.5973 45.3588 21.8197C45.2904 22.3325 44.8432 23.0353 44.4084 23.3121C44.3594 23.3433 44.3087 23.372 44.2564 23.3981C44.2044 23.424 44.1511 23.4472 44.0964 23.4677C44.042 23.4883 43.9867 23.506 43.9304 23.5209C43.8742 23.5359 43.8172 23.5479 43.7596 23.5569C43.702 23.566 43.6442 23.5721 43.586 23.5753C43.5279 23.5785 43.4698 23.5788 43.4116 23.5761C43.3535 23.5735 43.2956 23.5677 43.238 23.5589C43.1804 23.5501 43.1234 23.5385 43.0668 23.5241C42.2104 23.3081 41.6172 22.5461 41.1824 21.8273C41.156 21.3341 41.1484 20.8393 41.1328 20.3457C40.6244 19.5805 39.9292 18.9093 39.3096 18.2317L39.2252 16.9189Z" fill="#FD9378"/>
<path d="M41.6191 16.937C42.2147 16.8402 42.4919 16.7954 42.9959 17.1578C43.0303 17.1822 43.0635 17.2082 43.0979 17.2326C43.2231 17.3226 43.3503 17.3754 43.4935 17.4294C43.5327 17.4046 43.5735 17.3818 43.6115 17.3558C43.7959 17.2282 43.9059 17.0898 44.0483 16.9198C44.7111 16.7014 46.5435 16.9102 47.2795 17.0318C47.4203 17.2134 47.4351 17.487 47.3967 17.7142C47.1847 18.9602 45.1823 19.843 45.3819 21.141C45.2323 21.2454 45.0611 21.3454 44.9247 21.4658C44.8875 22.1034 44.5843 22.3606 44.1283 22.7862C43.9175 22.9078 43.6183 23.1006 43.3703 23.1022C42.9115 23.1054 42.6607 22.8098 42.3447 22.5218L41.7219 21.9126C41.7471 21.4318 41.7367 20.9506 41.7319 20.469C41.7255 20.4578 41.7183 20.447 41.7123 20.4358C41.1547 19.405 40.2228 18.6702 39.6292 17.6642C40.4212 17.507 41.1903 17.4678 41.9951 17.4334L41.6191 16.937Z" fill="#2A2C4C"/>
<path d="M42.3448 22.5216C42.708 22.2848 43.1141 21.9316 43.5733 22.0392C43.7237 22.0748 43.8597 22.1924 43.9401 22.3248C44.0233 22.4616 44.0749 22.6348 44.1285 22.786C43.9177 22.9076 43.6185 23.1004 43.3705 23.102C42.9117 23.1052 42.6608 22.8096 42.3448 22.5216Z" fill="#2E2D31"/>
<path d="M41.6191 16.9369C42.2147 16.8401 42.4919 16.7953 42.9959 17.1577C43.0303 17.1821 43.0635 17.2081 43.0979 17.2325C43.2231 17.3225 43.3503 17.3753 43.4935 17.4293C43.4099 17.9673 43.6828 18.2961 43.4292 18.8369L43.1899 18.7509C42.9623 18.8493 42.8535 18.9153 42.5975 18.8933C42.6771 18.5125 42.8451 18.2773 42.7367 17.8941C42.4831 17.6585 42.3191 17.5549 41.9951 17.4333L41.6191 16.9369Z" fill="#FAA16F"/>
<path d="M43.4936 17.4294C43.5328 17.4046 43.5736 17.3818 43.6116 17.3558C43.796 17.2282 43.906 17.0898 44.0484 16.9198C44.7112 16.7014 46.5436 16.9102 47.2796 17.0318C47.4204 17.2134 47.4352 17.487 47.3968 17.7142C47.1848 18.9602 45.1824 19.843 45.382 21.141C45.2324 21.2454 45.0612 21.3454 44.9248 21.4658C44.3512 20.1166 46.8268 18.9022 46.7756 17.6982C46.682 17.6066 46.5992 17.5378 46.4684 17.505C45.9532 17.3754 44.9868 17.3978 44.5292 17.6806C44.0108 18.0006 43.884 18.5646 43.7348 19.1102L43.5904 19.1166L43.4292 18.837C43.6828 18.2962 43.41 17.9674 43.4936 17.4294Z" fill="#FAA16F"/>
</svg>
